<?xml version="1.0" standalone="no"?>
<!DOCTYPE svg PUBLIC "-//W3C//DTD SVG 20010904//EN"
 "http://www.w3.org/TR/2001/REC-SVG-20010904/DTD/svg10.dtd">
<svg version="1.0" xmlns="http://www.w3.org/2000/svg"
 width="617.000000pt" height="617.000000pt" viewBox="0 0 617.000000 617.000000"
 preserveAspectRatio="xMidYMid meet">
<metadata>
Created by potrace 1.11, written by Peter Selinger 2001-2013
</metadata>
<g transform="translate(0.000000,617.000000) scale(0.100000,-0.100000)"
fill="#000000" stroke="none">
<path d="M2282 4679 c-55 -16 -118 -87 -131 -148 -8 -36 -11 -375 -11 -1125 0
-1199 -4 -1133 70 -1200 65 -58 151 -69 234 -29 29 13 39 14 65 4 21 -9 28
-18 24 -29 -4 -10 -3 -14 2 -10 4 4 14 -4 22 -18 9 -19 13 -74 13 -199 0 -95
3 -180 6 -189 3 -9 17 -16 30 -16 30 0 33 14 37 160 l2 115 52 -83 c37 -58 58
-82 73 -82 14 0 36 25 75 82 l55 83 0 -125 c0 -69 4 -131 9 -138 4 -8 19 -12
32 -10 l24 3 0 200 c0 197 0 200 -22 203 -17 3 -35 -17 -93 -102 -40 -58 -75
-106 -78 -106 -6 0 -142 206 -146 220 0 2 22 5 51 6 28 0 58 6 66 12 8 7 17 9
21 5 3 -4 15 2 25 13 11 10 64 63 119 117 l101 99 107 -107 c59 -59 118 -114
131 -122 12 -8 23 -21 23 -29 0 -8 9 -19 20 -26 11 -7 20 -18 20 -24 0 -6 7
-17 16 -25 13 -11 15 -32 12 -122 -3 -105 -4 -110 -31 -133 -30 -26 -83 -32
-117 -14 -37 20 -45 52 -50 195 l-5 140 -27 3 c-37 4 -41 -16 -37 -177 4 -143
12 -163 79 -208 44 -30 131 -32 178 -3 57 35 72 72 72 183 l0 98 41 39 c35 33
40 42 29 54 -9 12 -9 23 0 50 6 20 9 40 5 46 -3 5 -3 15 1 22 5 7 11 5 21 -7
12 -18 13 -18 13 3 0 12 6 22 14 22 7 0 19 7 26 15 10 12 9 20 -4 40 -20 31
-21 56 -1 49 8 -4 15 -1 15 4 0 6 12 12 27 14 26 3 26 3 -28 68 -29 36 -69 81
-89 101 -19 21 -59 64 -88 97 -30 35 -59 59 -66 56 -7 -3 -16 2 -19 10 -4 9
-3 16 2 16 4 0 14 11 21 25 7 14 19 25 26 25 7 0 18 14 26 30 7 17 16 30 21
30 4 0 12 11 17 25 5 14 16 25 25 25 8 0 15 4 15 8 0 5 27 37 60 73 33 35 63
72 66 82 3 9 10 17 15 17 5 0 9 9 9 20 0 11 -5 20 -11 20 -5 0 -7 5 -4 11 4 6
-2 13 -12 15 -15 4 -19 14 -19 38 1 28 11 41 63 83 160 128 252 299 274 506
14 129 4 300 -23 397 -73 268 -304 475 -588 526 -93 17 -404 19 -451 3 -87
-29 -143 -106 -142 -194 1 -107 87 -195 191 -195 45 0 72 23 72 63 0 33 -32
67 -63 67 -62 0 -89 81 -39 120 26 21 33 22 217 17 212 -6 256 -14 375 -74
252 -127 377 -431 314 -764 -28 -147 -109 -285 -216 -366 -85 -65 -87 -66
-141 -32 -39 24 -51 27 -73 19 -15 -6 -29 -9 -31 -6 -17 17 -203 -142 -203
-173 0 -6 -16 -27 -35 -45 -19 -19 -35 -37 -35 -41 0 -3 -6 -13 -14 -21 -13
-12 -19 -12 -50 3 -41 19 -42 22 -21 49 34 45 9 98 -54 110 -37 8 -61 37 -61
75 0 51 18 56 225 62 155 3 202 8 252 25 169 54 294 200 322 372 37 227 -13
416 -142 537 -70 65 -122 93 -214 117 -116 30 -173 13 -173 -53 0 -39 22 -54
101 -68 176 -29 277 -136 301 -318 22 -161 -15 -296 -104 -382 -80 -78 -114
-87 -348 -93 -194 -5 -207 -7 -250 -30 -47 -27 -88 -78 -97 -122 -3 -16 -7
-28 -10 -28 -2 0 -25 16 -50 35 -45 34 -55 39 -80 36 -10 -2 -13 91 -13 432 0
408 -1 435 -18 450 -23 21 -62 22 -88 3 -18 -14 -19 -34 -24 -518 -5 -474 -10
-548 -31 -548 -5 0 -9 -7 -9 -15 0 -9 6 -12 15 -9 8 4 15 1 15 -5 0 -6 -4 -11
-10 -11 -15 0 -30 -35 -33 -79 -3 -33 2 -47 24 -74 l28 -32 1 -178 c0 -211 8
-236 72 -237 51 0 58 19 58 161 0 71 4 129 8 129 4 0 36 -28 70 -62 69 -68 72
-90 23 -135 -74 -68 -161 -156 -161 -164 0 -5 -4 -9 -8 -9 -19 0 -122 -115
-122 -136 0 -53 -24 -69 -52 -36 -14 15 -16 147 -20 1087 -3 589 -2 1083 1
1099 3 16 18 38 32 49 24 17 30 18 54 6 30 -15 37 -26 51 -74 5 -16 22 -36 37
-45 24 -13 30 -13 55 0 22 13 28 23 30 62 8 128 -124 225 -256 187z"/>
<path d="M3573 2129 c-82 -24 -112 -133 -53 -189 20 -19 50 -33 87 -40 74 -16
101 -29 108 -52 10 -30 -4 -56 -37 -67 -46 -16 -70 -14 -123 15 -44 23 -50 24
-64 9 -33 -33 34 -83 123 -92 104 -11 184 54 173 141 -7 52 -38 80 -109 96
-113 25 -143 50 -114 95 24 36 73 41 134 15 53 -23 82 -21 82 4 0 24 -38 53
-85 65 -51 13 -78 13 -122 0z"/>
<path d="M1644 2117 c-2 -7 -3 -98 -2 -202 l3 -190 25 0 c24 0 25 3 28 73 l3
72 67 0 c80 0 120 20 145 73 21 43 21 67 3 111 -26 62 -56 76 -168 76 -71 0
-100 -4 -104 -13z m200 -69 c22 -31 20 -74 -4 -98 -17 -17 -31 -20 -78 -18
l-57 3 -3 68 -3 67 65 0 c56 0 67 -3 80 -22z"/>
<path d="M1997 2123 c-16 -16 -3 -45 53 -118 33 -43 60 -80 60 -82 0 -2 -27
-40 -60 -83 -65 -85 -75 -120 -37 -120 17 0 36 17 70 64 70 96 65 95 131 10
44 -58 63 -74 79 -72 39 6 31 37 -32 118 -34 44 -61 81 -61 84 0 3 27 41 61
85 62 81 71 113 34 119 -15 2 -34 -16 -75 -72 -30 -42 -58 -76 -61 -76 -4 0
-32 34 -63 75 -52 69 -80 88 -99 68z"/>
<path d="M3872 2118 c-14 -14 -17 -364 -3 -386 4 -8 19 -12 32 -10 l24 3 0
200 c0 193 -1 200 -20 203 -11 1 -26 -3 -33 -10z"/>
<path d="M4122 2109 c-125 -62 -150 -234 -48 -335 48 -49 108 -69 178 -61 60
7 88 22 88 47 0 29 -16 33 -70 19 -118 -30 -208 60 -181 182 19 84 106 130
191 101 17 -6 37 -9 46 -5 22 8 13 46 -16 60 -40 21 -139 16 -188 -8z"/>
</g>
</svg>
