 <svg version="1.0" xmlns="http://www.w3.org/2000/svg" width="700.000000pt" height="239.000000pt" viewBox="0 0 700.000000 239.000000" preserveAspectRatio="xMidYMid meet">
<metadata>
Created by potrace 1.12, written by Peter Selinger 2001-2015
</metadata>
<g transform="translate(0.000000,239.000000) scale(0.100000,-0.100000)" fill="#000000" stroke="none">
<path d="M995 1864 c-271 -66 -432 -212 -521 -474 -16 -45 -19 -84 -19 -220 0
-147 3 -172 23 -230 73 -204 221 -357 416 -428 65 -24 83 -26 226 -26 137 0
162 3 220 24 243 88 395 280 435 548 10 61 -10 53 -25 -10 -40 -169 -103 -282
-207 -378 -127 -116 -274 -166 -463 -157 -269 13 -477 172 -566 432 -36 106
-45 276 -19 389 53 242 250 443 480 491 145 30 295 12 425 -51 57 -28 95 -57
161 -123 98 -99 144 -182 180 -323 22 -91 46 -122 34 -45 -30 203 -125 363
-279 470 -121 85 -194 108 -356 112 -69 2 -134 2 -145 -1z"></path>
<path d="M4807 1834 c-3 -3 -84 -5 -181 -4 -172 1 -175 0 -190 -22 -14 -22
-96 -235 -96 -251 0 -17 -73 -153 -93 -176 -32 -35 -116 -71 -165 -71 -63 0
-65 11 -56 288 l7 232 -194 -2 -193 -3 2 -130 c2 -71 7 -233 13 -359 7 -157 7
-278 0 -385 -6 -86 -12 -217 -13 -291 l-3 -135 98 -8 c55 -5 140 -5 190 0 l92
8 0 225 c0 124 4 231 8 237 4 7 26 17 49 24 35 9 43 8 59 -8 15 -16 157 -264
219 -386 46 -88 56 -96 145 -108 44 -6 120 -8 169 -5 131 9 150 35 102 140
-34 75 -141 253 -274 459 l-53 82 23 15 c12 8 49 42 83 75 87 88 173 272 223
474 14 60 29 47 38 -31 5 -40 7 -324 6 -630 -1 -434 1 -559 11 -565 18 -11
193 -15 262 -6 l60 8 -3 340 c-3 303 5 581 24 878 l7 97 -185 0 c-102 0 -187
-3 -191 -6z m327 -124 c-1 -52 -5 -333 -8 -625 l-6 -530 -133 0 -132 0 0 565
c-1 403 -4 580 -13 619 -6 29 -9 57 -6 62 3 5 70 8 152 7 l147 -3 -1 -95z
m-1143 -142 l-4 -227 32 -32 c30 -30 36 -31 85 -26 140 14 199 85 301 362 26
72 52 136 57 143 12 14 283 18 292 3 9 -15 -63 -220 -116 -331 -43 -89 -63
-117 -129 -183 -44 -43 -79 -86 -79 -96 0 -9 59 -113 131 -230 72 -118 149
-250 172 -294 56 -111 56 -111 -119 -114 -96 -2 -146 1 -163 10 -15 7 -52 62
-98 147 -122 220 -183 319 -208 336 -19 12 -31 13 -63 4 -22 -5 -51 -19 -64
-29 -23 -19 -23 -21 -23 -238 l0 -218 -153 -3 c-130 -2 -153 0 -158 13 -4 9
-2 151 4 316 8 214 8 385 0 594 -5 162 -8 302 -4 310 5 13 29 15 158 13 l153
-3 -4 -227z"></path>
<path d="M5245 1820 c-3 -5 -1 -157 5 -337 9 -246 9 -405 0 -637 -9 -232 -9
-311 0 -320 13 -13 332 -16 364 -3 18 7 19 17 12 218 -4 116 -10 217 -12 224
-6 15 33 39 83 49 31 7 32 6 86 -86 59 -101 155 -274 194 -351 15 -29 35 -53
51 -59 16 -7 89 -12 172 -12 221 -1 237 17 152 178 -27 50 -106 183 -176 296
l-128 204 26 21 c14 11 39 30 55 42 86 67 241 397 253 539 l3 39 -169 3 c-173
3 -196 -2 -196 -37 0 -9 -6 -27 -13 -42 -8 -14 -26 -61 -41 -105 -71 -207
-119 -282 -201 -313 -78 -29 -120 -28 -141 5 -15 23 -16 42 -5 207 6 100 11
206 11 235 l0 52 -189 0 c-111 0 -192 -4 -196 -10z m340 -250 c0 -158 4 -231
12 -246 46 -80 219 -38 295 71 26 38 55 106 131 310 l34 90 142 3 c118 2 142
0 147 -12 7 -18 -33 -146 -84 -266 -48 -117 -108 -207 -175 -264 -43 -36 -57
-55 -57 -75 0 -16 49 -105 126 -230 140 -227 204 -343 204 -370 0 -37 -23 -43
-170 -39 -168 4 -155 -5 -245 165 -112 208 -185 323 -212 334 -32 12 -95 -6
-122 -35 -19 -20 -21 -37 -23 -236 l-3 -215 -149 -3 c-82 -1 -153 1 -157 5 -4
5 -3 141 3 303 8 204 8 391 1 605 -6 203 -6 314 0 323 7 9 47 12 156 10 l146
-3 0 -225z"></path>
<path d="M1047 1549 c-97 -23 -186 -100 -237 -203 -83 -168 -30 -397 114 -494
180 -121 407 -51 504 156 24 51 27 69 27 167 0 103 -2 114 -32 177 -72 153
-224 233 -376 197z m170 -41 c68 -17 162 -112 191 -194 70 -194 -21 -409 -198
-474 -96 -35 -193 -19 -279 46 -89 68 -126 152 -126 284 0 88 3 101 33 162 38
78 124 161 181 176 51 14 144 14 198 0z"></path>
<path d="M3120 1461 c-8 -5 -35 -11 -60 -15 -93 -13 -230 -122 -267 -212 -29
-70 -43 -57 -43 40 0 47 -4 96 -10 110 -9 26 -10 26 -117 25 -60 -1 -132 -4
-161 -7 l-54 -7 1 -172 c2 -158 0 -177 -21 -225 -33 -80 -91 -172 -110 -176
-17 -3 -68 67 -117 163 -25 48 -26 56 -26 235 l0 185 -165 0 -165 0 -3 -77
c-2 -43 1 -78 6 -78 5 0 13 28 18 63 l9 62 65 3 c36 1 96 -1 134 -5 l68 -8 2
-170 1 -170 33 -64 c105 -204 156 -212 247 -41 l50 95 5 175 5 175 123 9 c85
6 127 5 134 -2 6 -6 14 -48 18 -93 11 -127 48 -139 113 -36 85 132 216 194
391 185 146 -8 263 -85 330 -218 37 -74 54 -177 37 -221 -12 -33 -19 -34 -283
-54 -253 -19 -270 -23 -282 -57 -14 -41 23 -91 92 -125 49 -24 69 -28 137 -27
67 0 92 6 155 32 71 30 76 31 88 15 21 -28 62 -111 62 -126 0 -45 -122 -102
-251 -119 -83 -10 -108 -9 -180 5 -111 22 -196 65 -254 129 -56 62 -78 104
-99 183 -16 64 -35 86 -66 78 -11 -3 -58 -66 -112 -152 -92 -145 -335 -478
-378 -516 -19 -18 -39 -20 -159 -23 -106 -3 -140 -1 -148 10 -14 16 -63 137
-63 154 0 8 28 17 74 24 93 15 146 44 169 92 24 48 16 66 -105 238 -124 176
-146 216 -159 283 -14 70 -29 74 -29 8 0 -64 29 -119 171 -322 89 -128 110
-165 105 -184 -13 -50 -97 -84 -209 -85 -43 0 -59 -4 -64 -16 -5 -14 12 -60
73 -202 l14 -32 139 0 c192 0 191 0 260 84 128 157 375 516 412 599 18 40 31
29 45 -42 18 -86 45 -135 112 -204 106 -108 197 -142 377 -142 126 0 199 16
275 58 49 28 90 68 90 87 0 19 -72 155 -96 181 -15 16 -19 16 -63 -11 -57 -33
-145 -60 -196 -60 -61 0 -133 31 -172 74 -19 21 -31 42 -26 47 8 7 221 30 433
45 110 7 123 12 140 54 17 41 -2 185 -34 256 -28 61 -115 153 -176 185 -92 48
-246 75 -290 50z"></path>
<path d="M3095 1246 c-85 -38 -128 -164 -70 -202 22 -14 43 -16 138 -10 136 8
162 21 161 83 -2 102 -129 173 -229 129z m150 -47 c45 -40 71 -97 53 -115 -8
-8 -59 -15 -133 -20 -104 -6 -122 -4 -134 10 -11 13 -11 22 4 58 29 75 59 96
132 97 34 1 50 -5 78 -30z"></path>
</g>
</svg>